<svg xmlns="http://www.w3.org/2000/svg" viewBox="0 0 26 24"><defs><style>.cls-1{fill:#fff;}</style></defs><title>资源 1</title><g id="图层_2" data-name="图层 2"><g id="图层_1-2" data-name="图层 1"><path class="cls-1" d="M25.07.82A3,3,0,0,0,22.94,0h-20A3,3,0,0,0,0,3V17.12a3,3,0,0,0,3,3H23a3,3,0,0,0,3-3V2.92a3,3,0,0,0-.93-2.1Zm-1,16.32a1,1,0,0,1-1,1H2.78a1,1,0,0,1-1-1V2.82a1,1,0,0,1,1-1H23.07a1,1,0,0,1,1,1Zm-1.7,4.92h-19a1,1,0,0,0-.84.48,1,1,0,0,0,0,1,1,1,0,0,0,.84.49h19a1,1,0,1,0,0-1.94Z"/><path class="cls-1" d="M10.66,7.42h-6a1,1,0,0,0-.84.48,1,1,0,0,0,0,1,1,1,0,0,0,.84.49h6a1,1,0,1,0,0-1.94Z"/><path class="cls-1" d="M17.15,12.51H4.68a1,1,0,0,0-.84.48,1,1,0,0,0,0,1,1,1,0,0,0,.84.49H17.15a1,1,0,1,0,0-1.94Z"/></g></g></svg>