<svg xmlns="http://www.w3.org/2000/svg" xmlns:xlink="http://www.w3.org/1999/xlink" width="16" height="16" viewBox="0 0 16 16">
  <defs>
    <clipPath id="clip-menu-account-manageAccount">
      <rect width="16" height="16"/>
    </clipPath>
  </defs>
  <g id="menu-account-manageAccount" clip-path="url(#clip-menu-account-manageAccount)">
    <g id="分组">
      <path id="联合_4" data-name="联合 4" d="M-168.856-10084l.005-4,3.429-2,3.423,2-.005,4-3.429,2Zm1.971-2a1.487,1.487,0,0,0,1.467,1.5,1.487,1.487,0,0,0,1.47-1.5,1.485,1.485,0,0,0-1.47-1.5A1.485,1.485,0,0,0-166.885-10086Zm-10.116,3v-2a4.008,4.008,0,0,1,4-4h3v2h-3a2,2,0,0,0-2,2h5v2Zm3.5-10.5a3.5,3.5,0,0,1,3.5-3.5,3.506,3.506,0,0,1,3.5,3.5,3.5,3.5,0,0,1-3.5,3.5A3.5,3.5,0,0,1-173.5-10093.5Zm2,0a1.5,1.5,0,0,0,1.5,1.5,1.5,1.5,0,0,0,1.5-1.5,1.5,1.5,0,0,0-1.5-1.5A1.5,1.5,0,0,0-171.5-10093.5Z" transform="translate(177.501 10097.501)" fill="#0076ff" stroke="rgba(0,0,0,0)" stroke-miterlimit="10" stroke-width="1"/>
    </g>
  </g>
</svg>
